Patient4_TMGait_0pt8_01_right_40_GRF.mot
version=1
nRows=78
nColumns=19
inDegrees=no
endheader
time	F1x	F1y	F1z	M1x	M1y	M1z	F2x	F2y	F2z	M2x	M2y	M2z	EC1x	EC1y	EC1z	EC2x	EC2y	EC2z
44.88	-0.11061	726.263	60.9599	-266.1315	-65.7424	800.8653	3.7829	18.1544	1.923	4.5277	0.20726	12.861	-0.0592	0.0182	-0.0073	-0.0462	0.0165	0.9585
44.8914	3.6336	720.1408	60.6228	-263.7368	-63.5726	788.0532	2.3837	13.6623	1.2711	3.5764	0.29691	10.453	-0.0592	0.0182	-0.0073	-0.0462	0.0165	0.9585
44.9027	7.6572	714.2742	60.3103	-261.4233	-61.2812	775.2166	1.2343	9.9151	0.70746	2.7979	0.37367	8.459	-0.0592	0.0182	-0.0073	-0.0462	0.0165	0.9585
44.9141	11.7885	709.2472	60.051	-259.4061	-58.9841	763.2549	0.37519	7.116	0.26784	2.2309	0.43852	6.9922	-0.0592	0.0182	-0.0073	-0.0462	0.0165	0.9585
44.9254	15.8424	705.4812	59.9073	-257.8311	-56.8172	752.7812	-0.21435	5.2432	-0.036424	1.8688	0.48266	6.0505	-0.0592	0.0182	-0.0073	-0.0462	0.0165	0.9585
44.9368	19.7072	703.2248	59.8717	-256.7859	-54.8215	744.1333	-0.58417	4.1348	-0.23964	1.6725	0.52634	5.5203	-0.0592	0.0182	-0.0073	-0.0462	0.0165	0.9585
44.9481	23.2973	702.6123	59.9205	-256.3126	-53.0072	737.4891	-0.80164	3.5648	-0.3649	1.586	0.57506	5.2421	-0.0592	0.0182	-0.0073	-0.0462	0.0165	0.9585
44.9595	26.5944	703.5974	59.984	-256.3901	-51.3191	732.7788	-0.91678	3.3069	-0.44736	1.5476	0.64169	5.061	-0.0592	0.0182	-0.0073	-0.0462	0.0165	0.9585
44.9709	29.6286	706.0181	60.0374	-256.9473	-49.7278	729.798	-0.98029	3.1128	-0.50557	1.4853	0.72761	4.7721	-0.0592	0.0182	-0.0073	-0.0462	0.0165	0.9585
44.9822	32.4847	709.5495	60.065	-257.86	-48.1947	728.1477	-1.0142	2.7465	-0.55508	1.3238	0.83321	4.1564	-0.0592	0.0182	-0.0073	-0.0462	0.0165	0.9585
44.9936	35.2481	713.7875	60.0861	-258.9737	-46.7093	727.3681	-1.0191	1.9875	-0.6058	0.98826	0.94738	2.9951	-0.0592	0.0182	-0.0073	-0.0462	0.0165	0.9585
45.0049	38.0508	718.2917	60.1077	-260.1192	-45.2362	726.9785	-0.99098	0.651	-0.6622	0.41292	1.0531	1.0956	-0.0592	0.0182	-0.0073	-0.0462	0.0165	0.9585
45.0163	40.9757	722.6504	60.135	-261.1331	-43.754	726.5445	-0.89452	-1.3965	-0.72556	-0.45009	1.1233	-1.687	-0.0592	0.0182	-0.0073	-0.0462	0.0165	0.9585
45.0276	44.0958	726.5151	60.2152	-261.8685	-42.2835	725.7204	-0.69178	-4.1911	-0.76932	-1.6114	1.108	-5.3837	-0.0592	0.0182	-0.0073	-0.0462	0.0165	0.9585
45.039	47.4524	729.6257	60.4107	-262.2066	-40.8707	724.2831	-0.33215	-7.6089	-0.76917	-3.0176	0.95785	-9.8318	-0.0592	0.0182	-0.0073	-0.0462	0.0165	0.9585
45.0504	51.0314	731.792	60.8381	-262.0502	-39.6244	722.0642	0.24053	-11.2383	-0.68065	-4.4996	0.59604	-14.5074	-0.0592	0.0182	-0.0073	-0.0462	0.0165	0.9585
45.0617	54.786	732.8519	61.5738	-261.3151	-38.6244	718.9473	1.0772	-14.299	-0.46074	-5.7337	-0.051576	-18.4284	-0.0592	0.0182	-0.0073	-0.0462	0.0165	0.9585
45.0731	58.6014	732.6205	62.6642	-259.9181	-37.9429	714.793	2.1909	-15.4613	-0.052414	-6.1753	-1.0557	-19.9189	-0.0592	0.0182	-0.0073	-0.0462	0.0165	0.9585
45.0844	62.3054	730.8594	64.0834	-257.7747	-37.6117	709.4215	3.5435	-12.7858	0.59658	-5.025	-2.4581	-16.5034	-0.0592	0.0182	-0.0073	-0.0462	0.0165	0.9585
45.0958	65.6779	727.3234	65.757	-254.8147	-37.6394	702.6855	4.9741	-3.6524	1.5204	-1.2079	-4.2267	-4.8066	-0.0592	0.0182	-0.0073	-0.0462	0.0165	0.9585
45.1071	68.4794	721.7469	67.5453	-250.9846	-37.9877	694.4231	6.1892	15.1026	2.7178	6.5707	-6.2133	19.2267	-0.0592	0.0182	-0.0073	-0.0462	0.0165	0.9585
45.1185	70.5042	713.8135	69.2213	-246.2402	-38.5276	684.4033	6.6604	46.8425	4.1115	19.6781	-8.0734	59.9364	-0.0592	0.0182	-0.0073	-0.0462	0.0165	0.9585
45.1299	71.677	703.0021	70.4635	-240.4943	-39.0021	672.14	5.6498	94.4188	5.5173	39.258	-9.2285	121.0095	-0.0592	0.0182	-0.0073	-0.0462	0.0165	0.9585
45.1412	72.0133	688.4968	70.8942	-233.5798	-39.0673	656.7973	2.1286	158.9908	6.5858	65.7412	-8.7791	203.9738	-0.0592	0.0182	-0.0073	-0.0462	0.0165	0.9585
45.1526	71.6197	669.1286	70.1279	-225.2182	-38.343	637.1713	-5.1208	238.3793	6.7819	98.1732	-5.5389	306.0634	-0.0592	0.0182	-0.0073	-0.0462	0.0165	0.9585
45.1639	70.5476	643.4692	67.8247	-215.038	-36.5051	611.8131	-16.9449	325.4096	5.5042	133.539	1.5829	418.0949	-0.0592	0.0182	-0.0073	-0.0462	0.0165	0.9585
45.1753	68.721	610.0553	63.8219	-202.6349	-33.4352	579.2723	-32.0237	407.9944	1.6749	166.8683	13.2115	524.44	-0.0592	0.0182	-0.0073	-0.0462	0.0165	0.9585
45.1866	65.9286	567.8029	58.2532	-187.6898	-29.3339	538.513	-47.3517	476.1604	-5.3975	194.0947	28.7404	611.9792	-0.0592	0.0182	-0.0073	-0.0462	0.0165	0.9585
45.198	61.857	516.7469	51.5439	-170.1843	-24.6883	489.5869	-61.2302	528.2465	-14.3365	214.5149	45.8874	678.2699	-0.0592	0.0182	-0.0073	-0.0462	0.0165	0.9585
45.2094	56.3253	457.9815	44.3589	-150.4121	-20.1485	433.5385	-72.507	567.8196	-24.3445	229.5869	63.1681	727.7013	-0.0592	0.0182	-0.0073	-0.0462	0.0165	0.9585
45.2207	49.3637	393.6384	37.3122	-128.9921	-16.2387	372.3819	-80.8317	599.9648	-34.0157	241.4457	78.7674	766.8088	-0.0592	0.0182	-0.0073	-0.0462	0.0165	0.9585
45.2321	41.1117	326.6053	30.7384	-106.8086	-13.2013	308.8358	-86.0506	628.6998	-42.5517	251.7646	91.6496	800.7832	-0.0592	0.0182	-0.0073	-0.0462	0.0165	0.9585
45.2434	31.9219	260.2507	24.8383	-84.9233	-11.1009	246.0721	-88.5586	655.6271	-49.5786	261.2477	101.4653	831.8215	-0.0592	0.0182	-0.0073	-0.0462	0.0165	0.9585
45.2548	22.4378	198.0417	19.6687	-64.4482	-9.7779	187.3461	-88.7764	680.9153	-55.1206	269.9712	108.4255	860.2293	-0.0592	0.0182	-0.0073	-0.0462	0.0165	0.9585
45.2661	13.5138	142.8701	15.2579	-46.3263	-8.9635	135.324	-87.2492	704.0789	-59.7613	277.7044	113.3876	885.5703	-0.0592	0.0182	-0.0073	-0.0462	0.0165	0.9585
45.2775	6.0013	96.6578	11.5509	-31.185	-8.3064	91.7559	-84.4629	724.1029	-63.7235	284.0387	116.8627	906.709	-0.0592	0.0182	-0.0073	-0.0462	0.0165	0.9585
45.2889	0.44654	60.0361	8.4652	-19.2341	-7.5328	57.1933	-80.9531	739.9244	-67.4118	288.5335	119.4969	922.4793	-0.0592	0.0182	-0.0073	-0.0462	0.0165	0.9585
45.3002	-3.0444	32.722	5.9137	-10.3692	-6.5153	31.3581	-77.1254	750.6718	-70.6672	290.8798	121.3226	931.8811	-0.0592	0.0182	-0.0073	-0.0462	0.0165	0.9585
45.3116	-4.6477	13.733	3.8489	-4.2478	-5.2715	13.3424	-73.2869	756.105	-73.5367	291.0134	122.4916	934.7138	-0.0592	0.0182	-0.0073	-0.0462	0.0165	0.9585
45.3229	-4.8819	1.686	2.2304	-0.39846	-3.939	1.8873	-69.4639	756.6304	-75.75	289.1532	122.7592	931.453	-0.0592	0.0182	-0.0073	-0.0462	0.0165	0.9585
45.3343	-4.3306	-4.9272	1.0928	1.6911	-2.7482	-4.4154	-65.7312	752.9761	-77.3107	285.6463	122.1626	923.0389	-0.0592	0.0182	-0.0073	-0.0462	0.0165	0.9585
45.3456	-3.4313	-7.7225	0.37762	2.5536	-1.797	-7.0636	-62.0323	746.0774	-78.2332	280.9203	120.7392	910.5969	-0.0592	0.0182	-0.0073	-0.0462	0.0165	0.9585
45.357	-2.4649	-8.0435	-0.022659	2.6296	-1.0891	-7.3638	-58.4357	736.9202	-78.5561	275.4182	118.5976	895.3419	-0.0592	0.0182	-0.0073	-0.0462	0.0165	0.9585
45.3684	-1.5884	-6.9802	-0.18591	2.27	-0.61618	-6.3425	-54.9437	726.4476	-78.403	269.5647	115.917	878.4119	-0.0592	0.0182	-0.0073	-0.0462	0.0165	0.9585
45.3797	-0.86405	-5.3269	-0.22127	1.7264	-0.3076	-4.7667	-51.6269	715.58	-77.792	263.7531	112.8044	860.9191	-0.0592	0.0182	-0.0073	-0.0462	0.0165	0.9585
45.3911	-0.33442	-3.5681	-0.1707	1.157	-0.14594	-3.0778	-48.5948	704.9636	-76.883	258.2712	109.5013	843.6422	-0.0592	0.0182	-0.0073	-0.0462	0.0165	0.9585
45.4024	0.037513	-2.0237	-0.097863	0.66098	-0.066744	-1.5659	-45.8935	695.2878	-75.6753	253.3957	106.0723	827.4068	-0.0592	0.0182	-0.0073	-0.0462	0.0165	0.9585
45.4138	0.25956	-0.78273	-0.020517	0.26724	-0.05079	-0.32789	-43.5957	686.9888	-74.3544	249.3042	102.7468	812.7183	-0.0592	0.0182	-0.0073	-0.0462	0.0165	0.9585
45.4251	0.38847	0.11272	0.050005	-0.016538	-0.068893	0.57443	-41.6892	680.4084	-72.9528	246.1263	99.5792	799.9506	-0.0592	0.0182	-0.0073	-0.0462	0.0165	0.9585
45.4365	0.44756	0.71202	0.098671	-0.20827	-0.095683	1.1796	-40.0791	675.7087	-71.5906	243.9143	96.6683	789.252	-0.0592	0.0182	-0.0073	-0.0462	0.0165	0.9585
45.4479	0.46978	1.0769	0.14567	-0.33032	-0.13975	1.5196	-38.6651	672.9234	-70.2497	242.6804	93.9608	780.5882	-0.0592	0.0182	-0.0073	-0.0462	0.0165	0.9585
45.4592	0.46392	1.2655	0.17756	-0.40384	-0.18492	1.6731	-37.2161	672.1113	-68.9014	242.4408	91.3447	773.9034	-0.0592	0.0182	-0.0073	-0.0462	0.0165	0.9585
45.4706	0.45092	1.3526	0.21905	-0.45026	-0.24866	1.7128	-35.504	673.2873	-67.4996	243.2122	88.6757	769.0822	-0.0592	0.0182	-0.0073	-0.0462	0.0165	0.9585
45.4819	0.40874	1.3737	0.25074	-0.48012	-0.31466	1.7066	-33.2235	676.5664	-65.951	245.0481	85.7353	766.0787	-0.0592	0.0182	-0.0073	-0.0462	0.0165	0.9585
45.4933	0.37045	1.3618	0.28257	-0.50252	-0.38194	1.6778	-30.0154	682.1166	-64.2416	248.0226	82.3549	764.8895	-0.0592	0.0182	-0.0073	-0.0462	0.0165	0.9585
45.5046	0.29344	1.338	0.31979	-0.51822	-0.46177	1.6555	-25.5151	690.2134	-62.2918	252.2501	78.3026	765.6389	-0.0592	0.0182	-0.0073	-0.0462	0.0165	0.9585
45.516	0.20548	1.2721	0.3634	-0.51407	-0.54597	1.5962	-19.4155	701.3521	-60.1322	257.9036	73.4712	768.7199	-0.0592	0.0182	-0.0073	-0.0462	0.0165	0.9585
45.5274	0.074062	1.1731	0.43042	-0.48452	-0.66043	1.5152	-11.6304	716.06	-57.7761	265.1472	67.8211	774.6615	-0.0592	0.0182	-0.0073	-0.0462	0.0165	0.9585
45.5387	-0.093236	0.96465	0.5165	-0.40226	-0.8036	1.2938	-2.3545	734.5946	-55.3982	273.9999	61.5748	783.8382	-0.0592	0.0182	-0.0073	-0.0462	0.0165	0.9585
45.5501	-0.30562	0.58774	0.64225	-0.24391	-1.006	0.87465	7.9148	756.5576	-53.2367	284.1897	55.1414	796.0724	-0.0592	0.0182	-0.0073	-0.0462	0.0165	0.9585
45.5614	-0.52786	-0.07405	0.79634	0.021304	-1.2528	0.089663	18.4313	780.5944	-51.6125	295.0614	49.1009	810.3312	-0.0592	0.0182	-0.0073	-0.0462	0.0165	0.9585
45.5728	-0.75195	-1.0982	0.96732	0.41642	-1.5289	-1.1477	28.3814	804.6418	-50.8387	305.6745	44.0556	824.9323	-0.0592	0.0182	-0.0073	-0.0462	0.0165	0.9585
45.5841	-0.89424	-2.5503	1.1265	0.95469	-1.7706	-2.9455	36.968	826.1175	-51.068	314.9235	40.4386	837.6435	-0.0592	0.0182	-0.0073	-0.0462	0.0165	0.9585
45.5955	-0.90715	-4.3927	1.2174	1.6187	-1.8837	-5.2566	43.6399	842.4958	-52.2591	321.765	38.414	846.2425	-0.0592	0.0182	-0.0073	-0.0462	0.0165	0.9585
45.6069	-0.64462	-6.4827	1.176	2.3519	-1.7268	-7.9226	48.1509	851.7075	-54.1473	325.3956	37.8301	848.8448	-0.0592	0.0182	-0.0073	-0.0462	0.0165	0.9585
45.6182	0.031643	-8.46	0.87266	3.0229	-1.0846	-10.4645	50.535	852.5503	-56.3986	325.4025	38.3632	844.3152	-0.0592	0.0182	-0.0073	-0.0462	0.0165	0.9585
45.6296	1.3275	-9.7063	0.17934	3.4063	0.28304	-12.1126	51.1107	844.9732	-58.6707	321.8492	39.5906	832.5461	-0.0592	0.0182	-0.0073	-0.0462	0.0165	0.9585
45.6409	3.4261	-9.2056	-1.0923	3.1409	2.6688	-11.5723	50.2676	829.89	-60.7254	315.1978	41.15	814.2834	-0.0592	0.0182	-0.0073	-0.0462	0.0165	0.9585
45.6523	6.4897	-5.5728	-3.0708	1.7358	6.2917	-7.1163	48.5343	809.0399	-62.4147	306.2253	42.7237	791.0225	-0.0592	0.0182	-0.0073	-0.0462	0.0165	0.9585
45.6636	10.5053	2.9627	-5.8692	-1.4315	11.2738	3.4946	46.4273	784.4971	-63.6606	295.8346	44.0521	764.5689	-0.0592	0.0182	-0.0073	-0.0462	0.0165	0.9585
45.675	15.2608	18.3769	-9.4201	-7.0461	17.4437	22.7447	44.4511	758.2522	-64.4148	284.88	44.9106	736.6385	-0.0592	0.0182	-0.0073	-0.0462	0.0165	0.9585
45.6864	20.093	42.4937	-13.4534	-15.7302	24.2068	52.9657	43.0089	731.8101	-64.6245	274.006	45.103	708.5262	-0.0592	0.0182	-0.0073	-0.0462	0.0165	0.9585
45.6977	23.8317	76.4648	-17.297	-27.8517	30.2876	95.6354	42.3542	705.8739	-64.2127	263.5287	44.466	680.8297	-0.0592	0.0182	-0.0073	-0.0462	0.0165	0.9585
45.7091	24.6812	120.2674	-19.9482	-43.3427	33.8117	150.7988	42.5801	680.3392	-63.1049	253.4266	42.8976	653.4443	-0.0592	0.0182	-0.0073	-0.0462	0.0165	0.9585
45.7204	21.2063	172.7061	-20.3163	-61.6989	32.8843	217.0145	43.5917	654.4045	-61.2216	243.3943	40.3666	625.6703	-0.0592	0.0182	-0.0073	-0.0462	0.0165	0.9585
45.7318	13.419	231.446	-17.1535	-81.9996	25.9809	291.3533	45.1379	626.8391	-58.4858	232.9507	36.9066	596.4585	-0.0592	0.0182	-0.0073	-0.0462	0.0165	0.9585
45.7431	2.6108	292.6622	-9.8992	-102.8689	12.889	368.803	46.868	596.2415	-54.8777	221.5387	32.644	564.6191	-0.0592	0.0182	-0.0073	-0.0462	0.0165	0.9585
45.7545	-9.423	351.4748	0.83529	-122.6755	-4.9154	442.8127	48.3644	561.2191	-50.4485	208.6045	27.7945	528.9692	-0.0592	0.0182	-0.0073	-0.0462	0.0165	0.9585
